<svg width="256" height="256" viewBox="0 0 256 256" fill="none" xmlns="http://www.w3.org/2000/svg">
<g clip-path="url(#clip0_201_89)">
<mask id="mask0_201_89" style="mask-type:luminance" maskUnits="userSpaceOnUse" x="0" y="0" width="256" height="256">
<path d="M256 0H0V256H256V0Z" fill="white"/>
</mask>
<g mask="url(#mask0_201_89)">
<path d="M122.004 107.382C122.004 108.904 121.815 110.616 121.25 112.328C120.684 114.04 119.929 115.752 118.609 117.274C117.289 118.796 115.78 120.127 113.895 121.078C112.009 122.029 109.557 122.6 106.917 122.6H59.5811C58.6383 122.6 57.8838 122.41 57.1295 122.029C56.3752 121.649 55.6208 121.268 55.0551 120.698C54.4894 120.127 54.112 119.556 53.7349 118.605C53.3578 117.844 53.1692 117.084 53.1692 116.132V59.6368C53.1692 58.6855 53.3578 57.9247 53.7349 57.1638C54.112 56.403 54.4894 55.642 55.0551 55.0714C55.6208 54.5007 56.1865 54.1202 57.1295 53.7399C57.8838 53.3594 58.6383 53.1692 59.5811 53.1692H101.259C102.768 53.1692 104.465 53.3594 106.163 53.9302C107.86 54.5007 109.557 55.4519 111.066 56.5932C112.574 57.7345 113.895 59.4465 114.837 61.3488C115.78 63.2508 116.346 65.7238 116.346 68.3869V70.6694C116.346 72.9522 115.969 75.2348 115.215 77.898C114.46 80.3708 113.329 82.8436 111.632 85.1264C112.952 86.0774 114.272 87.0286 115.592 88.3601C116.912 89.5014 117.855 91.0232 118.798 92.545C119.741 94.0667 120.495 95.969 121.061 98.0613C121.627 100.154 121.815 102.246 121.815 104.719V107.382H122.004ZM109.557 104.909C109.557 103.197 109.368 101.866 108.803 100.534C108.237 99.2028 107.483 98.0613 106.728 97.1103C105.785 96.1592 104.654 95.3982 103.334 95.0178C102.013 94.6375 100.505 94.257 98.9961 94.257H70.7078V81.5121H93.15C94.8473 81.5121 96.1672 81.3218 97.4874 80.7513C98.8076 80.1805 99.939 79.61 100.882 78.6588C101.825 77.7077 102.579 76.5665 102.956 75.2348C103.522 73.9032 103.711 72.3815 103.711 70.8597V68.5771C103.711 66.8651 102.768 65.9141 101.071 65.9141H65.8046V110.045H106.917C107.105 110.045 107.483 110.045 107.671 110.045C108.048 110.045 108.237 109.855 108.614 109.665C108.803 109.475 109.18 109.284 109.368 108.904C109.557 108.523 109.746 107.953 109.746 107.382V104.909H109.557Z" fill="#C6A15A"/>
<path d="M202.451 93.6068C202.451 97.8033 201.698 101.809 200.194 105.242C198.688 108.676 196.808 111.918 194.175 114.398C191.542 116.878 188.533 118.976 185.148 120.502C181.574 122.028 177.813 122.6 173.675 122.6H140.01C139.07 122.6 138.318 122.409 137.565 122.028C136.813 121.646 136.061 121.265 135.497 120.692C134.932 120.12 134.556 119.548 134.18 118.594C133.992 118.213 133.804 117.45 133.804 116.496V59.6545C133.804 58.7007 133.992 57.9378 134.368 57.1747C134.744 56.4119 135.121 55.6488 135.685 55.0767C136.249 54.5044 136.813 54.1228 137.753 53.7415C138.506 53.36 139.258 53.1692 140.199 53.1692H173.863C178.001 53.1692 181.763 53.9323 185.336 55.2674C188.909 56.7934 191.918 58.7007 194.363 61.3712C196.997 63.8508 198.878 67.0935 200.382 70.527C201.886 74.151 202.639 77.9659 202.639 82.1623V93.6068H202.451ZM189.85 82.353C189.85 79.8732 189.474 77.5844 188.721 75.6769C187.969 73.5789 186.84 71.8621 185.336 70.527C183.831 69.001 182.139 68.0472 180.258 67.0935C178.189 66.3304 176.12 65.9491 173.675 65.9491H146.217V110.201H173.675C176.12 110.201 178.377 109.82 180.258 109.057C182.327 108.294 184.019 107.15 185.336 105.624C186.84 104.098 187.969 102.381 188.721 100.474C189.474 98.3754 189.85 96.2773 189.85 93.7976V82.353Z" fill="#C6A15A"/>
<path d="M122.008 195.647C122.008 196.573 121.819 197.316 121.442 198.057C121.065 198.797 120.687 199.54 120.122 200.095C119.556 200.651 118.99 201.021 118.047 201.394C117.293 201.764 116.539 201.949 115.596 201.949C114.841 201.949 114.087 201.764 113.333 201.579C112.578 201.208 111.824 200.836 111.258 200.281L65.8083 153.203V200.836H53.3616V138.56C53.3616 137.263 53.7387 136.151 54.493 135.224C55.2474 134.112 56.1903 133.371 57.3219 133C58.4533 132.444 59.7735 132.444 60.9051 132.629C62.2253 132.815 63.1681 133.371 64.1111 134.298L109.749 181.005V133.371H122.196V195.647H122.008Z" fill="#C6A15A"/>
<path d="M202.831 182.288C202.831 184.76 202.453 187.043 201.888 188.945C201.321 190.847 200.378 192.75 199.435 194.272C198.492 195.793 197.172 197.125 195.851 198.076C194.532 199.218 193.024 199.978 191.515 200.738C190.006 201.5 188.497 201.88 186.989 202.261C185.48 202.641 183.971 202.831 182.651 202.831H134.562V190.277H182.651C185.103 190.277 186.989 189.516 188.309 188.184C189.629 186.853 190.383 184.951 190.383 182.478C190.383 181.336 190.195 180.195 189.818 179.244C189.44 178.293 188.875 177.532 188.309 176.771C187.743 176.01 186.8 175.439 185.857 175.059C184.914 174.488 183.783 174.298 182.651 174.298H153.986C151.912 174.298 149.837 173.918 147.386 173.157C145.123 172.396 142.86 171.254 140.974 169.733C139.088 168.211 137.391 165.928 136.071 163.455C134.751 160.792 133.996 157.558 133.996 153.944C133.996 150.14 134.751 146.906 136.071 144.433C137.391 141.77 139.088 139.677 140.974 138.156C142.86 136.634 145.123 135.302 147.386 134.542C149.649 133.781 151.912 133.4 153.986 133.4H196.419V145.955H153.986C151.535 145.955 149.837 146.716 148.517 148.047C147.197 149.569 146.443 151.471 146.443 153.754C146.443 156.227 147.197 158.129 148.517 159.461C149.837 160.792 151.723 161.553 153.986 161.553H182.651H182.84C184.16 161.553 185.669 161.743 187.177 162.124C188.686 162.504 190.195 163.075 191.703 163.646C193.212 164.407 194.532 165.167 196.041 166.309C197.362 167.45 198.492 168.591 199.625 170.113C200.755 171.635 201.51 173.347 202.076 175.249C202.453 177.532 202.831 179.815 202.831 182.288Z" fill="#C6A15A"/>
<path fill-rule="evenodd" clip-rule="evenodd" d="M-0.984619 -0.984619H256.985V256.985H-0.984619V-0.984619ZM4.92307 4.92307V251.077H251.077V4.92307H4.92307Z" fill="#C6A15A"/>
</g>
</g>
<defs>
<clipPath id="clip0_201_89">
<rect width="256" height="256" fill="white"/>
</clipPath>
</defs>
</svg>
